<mxfile host="app.diagrams.net" agent="Mozilla/5.0 (Windows NT 10.0; Win64; x64) AppleWebKit/537.36 (KHTML, like Gecko) Chrome/139.0.0.0 Safari/537.36" version="28.1.0">
  <diagram name="Page-1" id="Y7fMB8nMaCXcloLM-Pp2">
    <mxGraphModel dx="1426" dy="829" grid="1" gridSize="10" guides="1" tooltips="1" connect="1" arrows="1" fold="1" page="1" pageScale="1" pageWidth="850" pageHeight="1100" math="0" shadow="0">
      <root>
        <mxCell id="0" />
        <mxCell id="1" parent="0" />
        <mxCell id="Dfxu81sBwkelCr8guTCU-4" value="" style="edgeStyle=orthogonalEdgeStyle;rounded=0;orthogonalLoop=1;jettySize=auto;html=1;" parent="1" source="Dfxu81sBwkelCr8guTCU-1" target="Dfxu81sBwkelCr8guTCU-3" edge="1">
          <mxGeometry relative="1" as="geometry" />
        </mxCell>
        <mxCell id="Dfxu81sBwkelCr8guTCU-1" value="Start" style="strokeWidth=2;html=1;shape=mxgraph.flowchart.start_2;whiteSpace=wrap;fillColor=#008a00;fontColor=#ffffff;strokeColor=#005700;" parent="1" vertex="1">
          <mxGeometry x="377.5" y="80" width="95" height="90" as="geometry" />
        </mxCell>
        <mxCell id="Dfxu81sBwkelCr8guTCU-2" value="FlowChart Admin" style="text;html=1;align=center;verticalAlign=middle;resizable=0;points=[];autosize=1;strokeColor=none;fillColor=none;" parent="1" vertex="1">
          <mxGeometry x="370" y="18" width="110" height="30" as="geometry" />
        </mxCell>
        <mxCell id="Dfxu81sBwkelCr8guTCU-6" style="edgeStyle=orthogonalEdgeStyle;rounded=0;orthogonalLoop=1;jettySize=auto;html=1;" parent="1" source="Dfxu81sBwkelCr8guTCU-3" target="Dfxu81sBwkelCr8guTCU-5" edge="1">
          <mxGeometry relative="1" as="geometry" />
        </mxCell>
        <mxCell id="Dfxu81sBwkelCr8guTCU-3" value="Login Website" style="shape=parallelogram;html=1;strokeWidth=2;perimeter=parallelogramPerimeter;whiteSpace=wrap;rounded=1;arcSize=12;size=0.23;" parent="1" vertex="1">
          <mxGeometry x="350" y="240" width="150" height="60" as="geometry" />
        </mxCell>
        <mxCell id="Dfxu81sBwkelCr8guTCU-10" value="" style="edgeStyle=orthogonalEdgeStyle;rounded=0;orthogonalLoop=1;jettySize=auto;html=1;" parent="1" source="Dfxu81sBwkelCr8guTCU-5" target="Dfxu81sBwkelCr8guTCU-7" edge="1">
          <mxGeometry relative="1" as="geometry" />
        </mxCell>
        <mxCell id="Dfxu81sBwkelCr8guTCU-5" value="Mengakses Databases" style="rounded=1;whiteSpace=wrap;html=1;absoluteArcSize=1;arcSize=14;strokeWidth=2;" parent="1" vertex="1">
          <mxGeometry x="358" y="350" width="135" height="70" as="geometry" />
        </mxCell>
        <mxCell id="Dfxu81sBwkelCr8guTCU-9" style="edgeStyle=orthogonalEdgeStyle;rounded=0;orthogonalLoop=1;jettySize=auto;html=1;entryX=0;entryY=0.5;entryDx=0;entryDy=0;exitX=0.007;exitY=0.497;exitDx=0;exitDy=0;exitPerimeter=0;" parent="1" source="Dfxu81sBwkelCr8guTCU-7" target="Dfxu81sBwkelCr8guTCU-3" edge="1">
          <mxGeometry relative="1" as="geometry">
            <mxPoint x="270" y="270" as="targetPoint" />
            <mxPoint x="370" y="509" as="sourcePoint" />
            <Array as="points">
              <mxPoint x="280" y="510" />
              <mxPoint x="280" y="270" />
            </Array>
          </mxGeometry>
        </mxCell>
        <mxCell id="ON-hStuvIpB2r_PBf_yH-8" value="&lt;span style=&quot;color: rgb(0, 0, 0); font-size: 12px;&quot;&gt;Login Gagal&lt;/span&gt;" style="edgeLabel;html=1;align=center;verticalAlign=middle;resizable=0;points=[];labelBackgroundColor=none;" vertex="1" connectable="0" parent="Dfxu81sBwkelCr8guTCU-9">
          <mxGeometry x="0.0083" y="-3" relative="1" as="geometry">
            <mxPoint x="-3" y="-7" as="offset" />
          </mxGeometry>
        </mxCell>
        <mxCell id="ON-hStuvIpB2r_PBf_yH-9" style="edgeStyle=orthogonalEdgeStyle;rounded=0;orthogonalLoop=1;jettySize=auto;html=1;entryX=0.5;entryY=0;entryDx=0;entryDy=0;" edge="1" parent="1" source="Dfxu81sBwkelCr8guTCU-7" target="ON-hStuvIpB2r_PBf_yH-4">
          <mxGeometry relative="1" as="geometry" />
        </mxCell>
        <mxCell id="ON-hStuvIpB2r_PBf_yH-10" value="Berhasil Login" style="edgeLabel;html=1;align=center;verticalAlign=middle;resizable=0;points=[];" vertex="1" connectable="0" parent="ON-hStuvIpB2r_PBf_yH-9">
          <mxGeometry x="-0.1206" y="-3" relative="1" as="geometry">
            <mxPoint as="offset" />
          </mxGeometry>
        </mxCell>
        <mxCell id="Dfxu81sBwkelCr8guTCU-7" value="Verifikasi&amp;nbsp;&lt;div&gt;&lt;span style=&quot;background-color: transparent; color: light-dark(rgb(0, 0, 0), rgb(255, 255, 255));&quot;&gt;Akun&lt;/span&gt;&lt;/div&gt;" style="strokeWidth=2;html=1;shape=mxgraph.flowchart.decision;whiteSpace=wrap;" parent="1" vertex="1">
          <mxGeometry x="375" y="460" width="100" height="100" as="geometry" />
        </mxCell>
        <mxCell id="ON-hStuvIpB2r_PBf_yH-4" value="Menampilkan Halaman Dashboard Admin" style="rounded=1;whiteSpace=wrap;html=1;absoluteArcSize=1;arcSize=14;strokeWidth=2;" vertex="1" parent="1">
          <mxGeometry x="358" y="630" width="135" height="70" as="geometry" />
        </mxCell>
        <mxCell id="ON-hStuvIpB2r_PBf_yH-11" value="Mengakses Databases" style="rounded=1;whiteSpace=wrap;html=1;absoluteArcSize=1;arcSize=14;strokeWidth=2;" vertex="1" parent="1">
          <mxGeometry x="630" y="350" width="135" height="70" as="geometry" />
        </mxCell>
      </root>
    </mxGraphModel>
  </diagram>
</mxfile>
